<svg width="171" height="100" viewBox="0 0 171 100" fill="none" xmlns="http://www.w3.org/2000/svg">
<path d="M62.6618 3.075C54.4416 9.83458 39.3938 24.5086 32.872 32.0835C24.0065 42.4436 14.8012 56.6761 8.17748 70.2972C2.06329 82.9332 -1.12968 93.701 0.3649 96.5203C0.976319 97.6412 2.77661 98.2187 4.61087 97.8111C7.93971 97.0638 9.26445 96.1127 24.482 83.8163C34.3327 75.8679 41.7037 70.6029 46.6969 68.0213C50.6711 65.9833 55.6984 64.5566 55.6984 65.4738C55.6984 66.1871 51.7241 71.3841 44.9306 79.5704C33.0758 93.8029 29.5772 98.4225 30.0527 99.1698C30.3245 99.6113 31.5813 99.5774 32.4984 99.0679C32.906 98.8301 35.4876 96.3165 38.205 93.4632C45.1004 86.33 51.0108 81.6424 57.7704 77.9739C62.4919 75.4263 68.8779 73.4222 69.4213 74.3054C69.761 74.8828 68.2664 76.7171 66.3303 77.9739C63.477 79.8761 58.7215 84.5636 55.6644 88.5039C54.2038 90.3721 52.7771 92.1045 52.5054 92.3762C51.7241 93.0216 51.86 93.7349 52.7432 93.7349C53.3206 93.7349 55.8682 91.4251 61.9824 85.4128C69.3194 78.2117 70.6781 76.9888 72.2407 76.4114C74.3127 75.6301 75.7393 75.5282 75.7393 76.1736C75.7393 76.9888 73.1918 80.9291 71.5613 82.5595C70.6442 83.4767 70.0328 84.3938 70.1347 84.5636C70.5762 85.277 71.5953 84.8354 73.1918 83.171C74.992 81.3367 79.5437 78.1098 80.359 78.1098C81.0723 78.1098 80.9364 78.5513 79.7475 80.1478C77.6076 82.9671 77.6415 82.8652 78.0491 83.2729C78.5926 83.8163 79.6456 83.2729 81.8535 81.2688C83.9256 79.4005 85.9297 77.9399 85.9297 78.2796C85.9297 78.4155 84.8767 79.978 83.5519 81.7443C82.2611 83.5106 81.2761 85.1071 81.378 85.277C81.4799 85.4468 81.9554 85.5827 82.431 85.5827C83.0764 85.5827 84.8427 84.0541 90.1417 78.857C100.298 68.9045 105.461 64.5227 112.934 59.5634C122.717 53.0416 130.869 49.1353 141.637 45.8064C143.981 45.0931 145.951 44.4817 146.053 44.4817C146.154 44.4817 144.252 45.4667 141.807 46.6217C132.33 51.2752 119.796 59.5634 107.329 69.448C104.408 71.7918 104.068 72.1994 104.612 72.8448C105.359 73.7619 106.582 73.3882 111.609 70.8067C117.01 67.9874 121.086 66.4588 122.717 66.6287C123.77 66.7306 123.736 66.7645 120.747 69.3121C119.048 70.7048 115.787 73.2863 113.444 74.9847C111.1 76.6831 108.926 78.3136 108.552 78.5853C107.737 79.2307 108.077 80.1478 109.13 80.1478C109.605 80.1478 113.579 78.925 118.029 77.4304C131.345 72.9467 135.828 71.8937 142.826 71.486L146.222 71.3162L143.165 72.2673C136.27 74.4752 127.54 78.4494 127.812 79.2307C128.253 80.5554 143.505 78.4155 150.366 76.0377C153.899 74.8149 154.986 73.4562 153.492 72.0295L152.778 71.3841L153.763 71.1803C156.141 70.7388 160.183 70.3311 164.497 70.1273C170.272 69.8556 171.732 69.4819 168.301 69.1083C165.414 68.7686 159.3 69.1083 154.545 69.8216C152.574 70.1273 150.604 70.3651 150.129 70.3651C149.653 70.3651 147.207 70.3651 144.694 70.3311C137.187 70.2632 132.058 71.3502 118.471 75.8679C114.87 77.0907 111.881 78.0079 111.847 77.9739C111.779 77.906 113.24 76.819 115.04 75.5282C118.573 73.0486 123.6 68.9385 124.959 67.4439C125.774 66.5947 125.774 66.5607 125.162 65.8814C124.721 65.4058 124.109 65.202 123.022 65.202C121.188 65.202 116.093 66.8664 113.308 68.395C108.654 70.9426 107.227 71.6899 107.126 71.554C106.99 71.4521 116.399 64.183 119.354 62.1109C120.271 61.4656 121.63 60.5145 122.411 59.971C135.047 51.0375 146.087 45.4667 156.515 42.7833C157.941 42.4097 158.451 41.5944 157.466 41.2208C156.311 40.7792 146.392 42.9531 139.769 45.1271C128.389 48.8296 121.222 52.3622 110.726 59.4954C103.831 64.149 98.8034 68.395 90.2436 76.7171C87.1865 79.7062 86.9827 79.8421 87.7639 78.4494C88.3753 77.3625 88.5112 76.819 88.2395 76.5133C87.696 75.8339 86.7789 75.9698 84.8767 77.0907C83.1443 78.1437 83.1103 78.1437 82.6348 77.4304C81.8535 76.3095 80.4609 76.5472 76.6565 78.3815C76.4866 78.4494 76.5206 78.2117 76.7244 77.838C76.9282 77.4644 77.098 76.6831 77.098 76.1396C77.098 75.3244 76.8942 75.0527 76.0111 74.679C75.1279 74.3054 74.6184 74.3393 72.954 74.747L70.9839 75.2904V74.5092C70.9839 71.9956 65.8208 72.607 58.9253 75.9019C52.0978 79.1628 45.3382 84.2919 37.7294 92.0026C34.8422 94.9238 32.8381 96.7581 33.3136 96.1127C34.7403 94.0406 39.3259 88.3341 45.6439 80.8272C52.7771 72.3692 56.9552 66.9004 57.2609 65.7115C58.2459 61.7373 49.0407 64.4547 39.3599 70.9765C34.7742 74.0676 29.1016 78.3815 20.8135 85.1411C12.1177 92.2403 8.99271 94.5162 6.27529 95.807C1.48584 98.1168 0.330932 96.2825 2.19916 89.3871C6.47909 73.3543 19.9303 49.4749 33.8911 33.1365C40.3789 25.4937 53.7282 12.552 63.1373 4.73942C65.4811 2.76929 67.4512 0.901062 67.5191 0.561385C67.7569 -0.661454 66.2963 0.0858364 62.6618 3.075ZM151.657 72.4032C152.778 72.9127 152.744 73.1505 151.386 73.9997C149.347 75.2565 139.735 77.5663 133.654 78.2796L131.956 78.4834L133.654 77.6002C137.153 75.8 148.125 72.0635 150.027 71.9956C150.434 71.9956 151.182 72.1654 151.657 72.4032ZM63.5789 82.1859C63.2732 82.5935 62.2541 83.5106 61.303 84.2919L59.6047 85.6846L61.6427 83.6125C63.5449 81.6424 64.9036 80.6573 63.5789 82.1859Z" fill="white"/>
</svg>
